<?xml version="1.0" encoding="UTF-8" standalone="no"?>
<!-- Created with Inkscape (http://www.inkscape.org/) -->

<svg
   xmlns:p="http://www.evolus.vn/Namespace/Pencil"
   xmlns:dc="http://purl.org/dc/elements/1.1/"
   xmlns:cc="http://creativecommons.org/ns#"
   xmlns:rdf="http://www.w3.org/1999/02/22-rdf-syntax-ns#"
   xmlns:svg="http://www.w3.org/2000/svg"
   xmlns="http://www.w3.org/2000/svg"
   xmlns:xlink="http://www.w3.org/1999/xlink"
   xmlns:sodipodi="http://sodipodi.sourceforge.net/DTD/sodipodi-0.dtd"
   xmlns:inkscape="http://www.inkscape.org/namespaces/inkscape"
   width="32px"
   height="32px"
   id="svg3020"
   version="1.1"
   inkscape:version="0.48.5 r10040"
   inkscape:export-filename="E:\SVN\One\images\addToLibrary.png"
   inkscape:export-xdpi="90"
   inkscape:export-ydpi="90"
   sodipodi:docname="addToLibrary.svg">
  <defs
     id="defs3022" />
  <sodipodi:namedview
     id="base"
     pagecolor="#ffffff"
     bordercolor="#666666"
     borderopacity="1.0"
     inkscape:pageopacity="0.0"
     inkscape:pageshadow="2"
     inkscape:zoom="11.197802"
     inkscape:cx="16"
     inkscape:cy="16"
     inkscape:current-layer="layer1"
     showgrid="true"
     inkscape:grid-bbox="true"
     inkscape:document-units="px"
     inkscape:window-width="1366"
     inkscape:window-height="706"
     inkscape:window-x="-8"
     inkscape:window-y="-8"
     inkscape:window-maximized="1" />
  <metadata
     id="metadata3025">
    <rdf:RDF>
      <cc:Work
         rdf:about="">
        <dc:format>image/svg+xml</dc:format>
        <dc:type
           rdf:resource="http://purl.org/dc/dcmitype/StillImage" />
        <dc:title></dc:title>
      </cc:Work>
    </rdf:RDF>
  </metadata>
  <g
     id="layer1"
     inkscape:label="Layer 1"
     inkscape:groupmode="layer">
    <g
       transform="scale(1.3333333,1.3333333)"
       id="8b345d47299e4ac88ff5b51dc3895be9"
       p:def="Evolus:FontAwesomeIcons:icon-download"
       p:type="Shape"
       style="fill:#000000"
       inkscape:export-filename="E:\SVN\One\images\addToWorkspace.png"
       inkscape:export-xdpi="90"
       inkscape:export-ydpi="90">
      <p:metadata>
        <p:property
           name="box">24,24</p:property>
        <p:property
           name="withShadow">false</p:property>
        <p:property
           name="disabled">false</p:property>
        <p:property
           name="shadowColor">#FFFFFFFF</p:property>
        <p:property
           name="fillColor">#333333FF</p:property>
        <p:property
           name="disabledColor">#AAAAAAFF</p:property>
      </p:metadata>
      <defs
         id="defs3269">
        <path
           id="8bb4431c09294a2f97b2877f2051745f"
           p:name="glyph"
           transform="matrix(0.015625,0,0,-0.015625,3.5234375,28)"
           d="m 0,768 q 0,166 62.5,311.5 62.5,145.5 171,254 108.5,108.5 254,171 145.5,62.5 311.5,62.5 166,0 311,-62.5 145,-62.5 254,-171 109,-108.5 171,-254 Q 1597,934 1597,768 1597,602 1535,456.5 1473,311 1364,202.5 1255,94 1110,31.5 965,-31 799,-31 633,-31 487.5,31.5 342,94 233.5,202.5 125,311 62.5,456.5 0,602 0,768 z m 240,0 Q 240,651 284,550 328,449 403.5,373 479,297 580.5,253 682,209 799,209 q 117,0 218,44 101,44 177,120 76,76 120,177 44,101 44,218 0,117 -44,218 -44,101 -120,177 -76,76 -177.5,120 Q 915,1327 799,1327 682,1327 580.5,1283 479,1239 403.5,1163 328,1087 284,986 240,885 240,768 z m 174,-25 q 10,25 37,25 h 208 v 358 q 0,16 11.5,28.5 11.5,12.5 27.5,12.5 h 201 q 16,0 27.5,-12 11.5,-12 11.5,-29 V 768 h 209 q 27,0 37,-25 10,-25 -10,-43 L 827,354 q -14,-10 -28,-10 -14,0 -29,10 L 424,700 q -20,18 -10,43 z"
           inkscape:connector-curvature="0" />
      </defs>
      <g
         transform="scale(0.75,0.75)"
         id="c8ee555f12db4c348d59fc1b300123cd"
         p:name="group"
         style="fill:#000000">
        <rect
           id="rect3273"
           y="0"
           x="0"
           width="32"
           height="32"
           style="fill:#000000;fill-opacity:0;stroke:none" />
        <g
           id="g3275"
           transform="translate(1,1)"
           style="fill:#000000">
          <use
             style="fill:#000000;fill-opacity:1;visibility:hidden;display:none"
             id="ffcc676494794c1c953e76e50954bdae"
             p:name="shadow"
             xlink:href="#8bb4431c09294a2f97b2877f2051745f"
             x="0"
             y="0"
             width="1"
             height="1" />
        </g>
        <use
           style="fill:#000000;fill-opacity:1"
           id="8d07cac177e44b64922327eab747f100"
           p:name="icon"
           xlink:href="#8bb4431c09294a2f97b2877f2051745f"
           x="0"
           y="0"
           width="1"
           height="1" />
      </g>
    </g>
  </g>
</svg>
