<?xml version="1.0" encoding="UTF-8" standalone="no"?>
<!-- Created with Inkscape (http://www.inkscape.org/) -->

<svg
   xmlns:p="http://www.evolus.vn/Namespace/Pencil"
   xmlns:dc="http://purl.org/dc/elements/1.1/"
   xmlns:cc="http://creativecommons.org/ns#"
   xmlns:rdf="http://www.w3.org/1999/02/22-rdf-syntax-ns#"
   xmlns:svg="http://www.w3.org/2000/svg"
   xmlns="http://www.w3.org/2000/svg"
   xmlns:xlink="http://www.w3.org/1999/xlink"
   xmlns:sodipodi="http://sodipodi.sourceforge.net/DTD/sodipodi-0.dtd"
   xmlns:inkscape="http://www.inkscape.org/namespaces/inkscape"
   width="32px"
   height="32px"
   id="svg2985"
   version="1.1"
   inkscape:version="0.48.5 r10040"
   inkscape:export-filename="E:\SVN\One\images\options.png"
   inkscape:export-xdpi="90"
   inkscape:export-ydpi="90"
   sodipodi:docname="options.svg">
  <defs
     id="defs2987" />
  <sodipodi:namedview
     id="base"
     pagecolor="#ffffff"
     bordercolor="#666666"
     borderopacity="1.0"
     inkscape:pageopacity="0.0"
     inkscape:pageshadow="2"
     inkscape:zoom="11.197802"
     inkscape:cx="16"
     inkscape:cy="16"
     inkscape:current-layer="layer1"
     showgrid="true"
     inkscape:grid-bbox="true"
     inkscape:document-units="px"
     inkscape:window-width="1366"
     inkscape:window-height="706"
     inkscape:window-x="-8"
     inkscape:window-y="-8"
     inkscape:window-maximized="1" />
  <metadata
     id="metadata2990">
    <rdf:RDF>
      <cc:Work
         rdf:about="">
        <dc:format>image/svg+xml</dc:format>
        <dc:type
           rdf:resource="http://purl.org/dc/dcmitype/StillImage" />
        <dc:title></dc:title>
      </cc:Work>
    </rdf:RDF>
  </metadata>
  <g
     id="layer1"
     inkscape:label="Layer 1"
     inkscape:groupmode="layer">
    <g
       transform="scale(1.3333333,1.3333333)"
       id="0862e3161e744f2a9d8ee1428f3f26f1"
       p:def="Evolus:FontAwesomeIcons:icon-ok-circle"
       p:type="Shape"
       style="fill:#000000">
      <p:metadata>
        <p:property
           name="box">24,24</p:property>
        <p:property
           name="withShadow">false</p:property>
        <p:property
           name="disabled">false</p:property>
        <p:property
           name="shadowColor">#FFFFFFFF</p:property>
        <p:property
           name="fillColor">#333333FF</p:property>
        <p:property
           name="disabledColor">#AAAAAAFF</p:property>
      </p:metadata>
      <defs
         id="defs3033">
        <path
           id="f3f6fff867fe4467bcd417d0ddb5ad2e"
           p:name="glyph"
           transform="matrix(0.015625,0,0,-0.015625,3.5234375,28)"
           d="m 0,768 q 0,166 62.5,311.5 62.5,145.5 171,254 108.5,108.5 254,171 145.5,62.5 311.5,62.5 166,0 311,-62.5 145,-62.5 254,-171 109,-108.5 171,-254 Q 1597,934 1597,768 1597,602 1535,456.5 1473,311 1364,202.5 1255,94 1110,31.5 965,-31 799,-31 633,-31 487.5,31.5 342,94 233.5,202.5 125,311 62.5,456.5 0,602 0,768 z m 240,0 Q 240,651 284,550 328,449 403.5,373 479,297 580.5,253 682,209 799,209 q 117,0 218,44 101,44 177,120 76,76 120,177 44,101 44,218 0,117 -44,218 -44,101 -120,177 -76,76 -177.5,120 Q 915,1327 799,1327 682,1327 580.5,1283 479,1239 403.5,1163 328,1087 284,986 240,885 240,768 z m 92,-50.5 q 0,17.5 10,27.5 l 115,115 q 10,10 27.5,10 17.5,0 27.5,-10 L 690,680 q 29,-25 58,0 l 337,340 q 10,10 27.5,10 17.5,0 28.5,-10 l 114,-115 q 10,-10 10.5,-27.5 Q 1266,860 1255,850 L 846,440 Q 834,428 813.5,420 793,412 776,412 H 662 q -16,0 -37,8 -21,8 -33,20 L 342,690 q -10,10 -10,27.5 z"
           inkscape:connector-curvature="0" />
      </defs>
      <g
         transform="scale(0.75,0.75)"
         id="e276a5f62d654d88a56ddb8dd6355e41"
         p:name="group"
         style="fill:#000000">
        <rect
           id="rect3037"
           y="0"
           x="0"
           width="32"
           height="32"
           style="fill:#000000;fill-opacity:0;stroke:none" />
        <g
           id="g3039"
           transform="translate(1,1)"
           style="fill:#000000">
          <use
             style="fill:#000000;fill-opacity:1;visibility:hidden;display:none"
             id="796b8e43ea9d4302b2b6609fae5cf805"
             p:name="shadow"
             xlink:href="#f3f6fff867fe4467bcd417d0ddb5ad2e"
             x="0"
             y="0"
             width="1"
             height="1" />
        </g>
        <use
           style="fill:#000000;fill-opacity:1"
           id="7e9bcfec571748a2bf7a8f7f639e95e5"
           p:name="icon"
           xlink:href="#f3f6fff867fe4467bcd417d0ddb5ad2e"
           x="0"
           y="0"
           width="1"
           height="1" />
      </g>
    </g>
  </g>
</svg>
