<?xml version="1.0" encoding="UTF-8" standalone="no"?>
<!-- Created with Inkscape (http://www.inkscape.org/) -->

<svg
   xmlns:p="http://www.evolus.vn/Namespace/Pencil"
   xmlns:dc="http://purl.org/dc/elements/1.1/"
   xmlns:cc="http://creativecommons.org/ns#"
   xmlns:rdf="http://www.w3.org/1999/02/22-rdf-syntax-ns#"
   xmlns:svg="http://www.w3.org/2000/svg"
   xmlns="http://www.w3.org/2000/svg"
   xmlns:xlink="http://www.w3.org/1999/xlink"
   xmlns:sodipodi="http://sodipodi.sourceforge.net/DTD/sodipodi-0.dtd"
   xmlns:inkscape="http://www.inkscape.org/namespaces/inkscape"
   width="32px"
   height="32px"
   id="svg2985"
   version="1.1"
   inkscape:version="0.48.5 r10040"
   inkscape:export-filename="E:\SVN\One\images\cut.png"
   inkscape:export-xdpi="90"
   inkscape:export-ydpi="90"
   sodipodi:docname="copy.svg">
  <defs
     id="defs2987" />
  <sodipodi:namedview
     id="base"
     pagecolor="#ffffff"
     bordercolor="#666666"
     borderopacity="1.0"
     inkscape:pageopacity="0.0"
     inkscape:pageshadow="2"
     inkscape:zoom="11.197802"
     inkscape:cx="16"
     inkscape:cy="16"
     inkscape:current-layer="layer1"
     showgrid="true"
     inkscape:grid-bbox="true"
     inkscape:document-units="px"
     inkscape:window-width="1366"
     inkscape:window-height="706"
     inkscape:window-x="-8"
     inkscape:window-y="-8"
     inkscape:window-maximized="1" />
  <metadata
     id="metadata2990">
    <rdf:RDF>
      <cc:Work
         rdf:about="">
        <dc:format>image/svg+xml</dc:format>
        <dc:type
           rdf:resource="http://purl.org/dc/dcmitype/StillImage" />
        <dc:title></dc:title>
      </cc:Work>
    </rdf:RDF>
  </metadata>
  <g
     id="layer1"
     inkscape:label="Layer 1"
     inkscape:groupmode="layer">
    <g
       transform="scale(1.3333333,1.3333333)"
       id="79ff44b5e95c46bebc4cea10d5bd2a7a"
       p:def="Evolus:FontAwesomeIcons:icon-cut"
       p:type="Shape"
       style="fill:#000000">
      <p:metadata>
        <p:property
           name="box">24,24</p:property>
        <p:property
           name="withShadow">false</p:property>
        <p:property
           name="disabled">false</p:property>
        <p:property
           name="shadowColor">#FFFFFFFF</p:property>
        <p:property
           name="fillColor">#333333FF</p:property>
        <p:property
           name="disabledColor">#AAAAAAFF</p:property>
      </p:metadata>
      <defs
         id="defs3095">
        <path
           id="dad488b8c83d439e96e6e5997c1dcda7"
           p:name="glyph"
           transform="matrix(0.015625,0,0,-0.015625,1.03125,28)"
           d="M 0,180 Q 0,266 44,348 88,430 157.5,494.5 227,559 312,598 q 85,39 169,39 h 13 q 18,25 57,60.5 39,35.5 63,58.5 v 12 12 q -12,12 -28.5,27.5 -16.5,15.5 -35,32 Q 532,856 517,871.5 502,887 494,899 410,893 321.5,932 233,971 161.5,1037.5 90,1104 45,1188 0,1272 0,1356 q 0,98 62.5,154.5 62.5,56.5 160.5,56.5 82,0 168,-39 86,-39 155.5,-103.5 69.5,-64.5 114,-146.5 44.5,-82 44.5,-168 0,-10 -1.5,-21.5 Q 702,1077 700,1067 l 86,-76 34,17 q 34,18 90.5,46.5 56.5,28.5 129,65.5 72.5,37 148.5,76 76,39 150.5,77 74.5,38 135,69.5 60.5,31.5 102.5,52 42,20.5 52,26.5 16,8 37,9 14,0 39,-4.5 25,-4.5 52.5,-9.5 27.5,-5 53,-11 25.5,-6 41.5,-8 29,-4 47.5,-26.5 18.5,-22.5 18.5,-51.5 0,-43 -35,-66 L 1182,768 1882,283 q 35,-23 35,-66 0,-29 -18.5,-51.5 Q 1880,143 1851,139 q -16,-4 -41.5,-9 -25.5,-5 -53,-10 -27.5,-5 -52.5,-9.5 -25,-4.5 -39,-4.5 -10,0 -18.5,2.5 -8.5,2.5 -18.5,6.5 L 786,545 700,469 q 2,-10 3.5,-21.5 Q 705,436 705,426 705,340 660.5,258 616,176 546.5,111.5 477,47 391,8 305,-31 223,-31 125,-31 62.5,25.5 0,82 0,180 z m 197,1178 q 0,-23 11,-49.5 11,-26.5 27.5,-51 16.5,-24.5 35,-45 18.5,-20.5 34.5,-34.5 35,-29 82,-54.5 47,-25.5 94,-25.5 10,0 27,4 v 6 q 0,23 -11.5,48.5 -11.5,25.5 -27.5,50 -16,24.5 -34.5,46 -18.5,21.5 -35.5,35.5 -35,29 -82,54.5 -47,25.5 -94,25.5 -14,0 -26,-4 v -6 z m 2,-1178 q 0,-6 2,-10 6,0 11,-1 5,-1 11,-1 41,0 90,24.5 49,24.5 92.5,61.5 43.5,37 72,83 28.5,46 28.5,89 0,4 -1,5 -1,1 -1,5 -8,2 -23,2 -41,0 -90,-24.5 Q 342,389 299,352 256,315 227.5,269 199,223 199,180 z m 387,436 q 53,-25 82,-69 l 108,96 45,-27 1016,703 -172,31 -975,-498 6,-127 z m 0,304 35,-35 q 12,29 36.5,41 24.5,12 53.5,26 l -43,37 Q 639,944 586,920 z M 741,768 q 0,35 23.5,57.5 Q 788,848 823,848 856,848 878.5,825.5 901,803 901,768 901,735 878.5,711.5 856,688 821,688 788,688 764.5,711.5 741,735 741,768 z m 162,-193 762,-389 172,31 -727,502 z"
           inkscape:connector-curvature="0" />
      </defs>
      <g
         transform="scale(0.75,0.75)"
         id="ebd492f0efa64d46a1952cf31425ca19"
         p:name="group"
         style="fill:#000000">
        <rect
           id="rect3099"
           y="0"
           x="0"
           width="32"
           height="32"
           style="fill:#000000;fill-opacity:0;stroke:none" />
        <g
           id="g3101"
           transform="translate(1,1)"
           style="fill:#000000">
          <use
             style="fill:#000000;fill-opacity:1;visibility:hidden;display:none"
             id="d5c8264a34e54cae96d4b4360e4d1a54"
             p:name="shadow"
             xlink:href="#dad488b8c83d439e96e6e5997c1dcda7"
             x="0"
             y="0"
             width="1"
             height="1" />
        </g>
        <use
           style="fill:#000000;fill-opacity:1"
           id="a7942c18ee3d409bb68617414f28d31a"
           p:name="icon"
           xlink:href="#dad488b8c83d439e96e6e5997c1dcda7"
           x="0"
           y="0"
           width="1"
           height="1" />
      </g>
    </g>
  </g>
</svg>
