<?xml version="1.0" encoding="UTF-8" standalone="no"?>
<!-- Created with Inkscape (http://www.inkscape.org/) -->

<svg
   xmlns:p="http://www.evolus.vn/Namespace/Pencil"
   xmlns:dc="http://purl.org/dc/elements/1.1/"
   xmlns:cc="http://creativecommons.org/ns#"
   xmlns:rdf="http://www.w3.org/1999/02/22-rdf-syntax-ns#"
   xmlns:svg="http://www.w3.org/2000/svg"
   xmlns="http://www.w3.org/2000/svg"
   xmlns:xlink="http://www.w3.org/1999/xlink"
   xmlns:sodipodi="http://sodipodi.sourceforge.net/DTD/sodipodi-0.dtd"
   xmlns:inkscape="http://www.inkscape.org/namespaces/inkscape"
   width="32px"
   height="32px"
   id="svg2985"
   version="1.1"
   inkscape:version="0.48.5 r10040"
   inkscape:export-filename="E:\SVN\One\images\fav.png"
   inkscape:export-xdpi="90"
   inkscape:export-ydpi="90"
   sodipodi:docname="cut.svg">
  <defs
     id="defs2987" />
  <sodipodi:namedview
     id="base"
     pagecolor="#ffffff"
     bordercolor="#666666"
     borderopacity="1.0"
     inkscape:pageopacity="0.0"
     inkscape:pageshadow="2"
     inkscape:zoom="11.197802"
     inkscape:cx="16"
     inkscape:cy="16"
     inkscape:current-layer="layer1"
     showgrid="true"
     inkscape:grid-bbox="true"
     inkscape:document-units="px"
     inkscape:window-width="1366"
     inkscape:window-height="706"
     inkscape:window-x="-8"
     inkscape:window-y="-8"
     inkscape:window-maximized="1" />
  <metadata
     id="metadata2990">
    <rdf:RDF>
      <cc:Work
         rdf:about="">
        <dc:format>image/svg+xml</dc:format>
        <dc:type
           rdf:resource="http://purl.org/dc/dcmitype/StillImage" />
        <dc:title></dc:title>
      </cc:Work>
    </rdf:RDF>
  </metadata>
  <g
     id="layer1"
     inkscape:label="Layer 1"
     inkscape:groupmode="layer">
    <g
       transform="scale(1.3333333,1.3333333)"
       id="b8ad288c2f344488aedae2ec9309a580"
       p:def="Evolus:FontAwesomeIcons:icon-facebook-sign"
       p:type="Shape"
       style="fill:#000000">
      <p:metadata>
        <p:property
           name="box">24,24</p:property>
        <p:property
           name="withShadow">false</p:property>
        <p:property
           name="disabled">false</p:property>
        <p:property
           name="shadowColor">#FFFFFFFF</p:property>
        <p:property
           name="fillColor">#333333FF</p:property>
        <p:property
           name="disabledColor">#AAAAAAFF</p:property>
      </p:metadata>
      <defs
         id="defs3126">
        <path
           id="1f60c2c99c3f445ebbdef4f8c7dcea18"
           p:name="glyph"
           transform="matrix(0.015625,0,0,-0.015625,4,28)"
           d="m 2,193 v 1150 q 0,39 15.5,75 15.5,36 41,61.5 25.5,25.5 60.5,41 35,15.5 74,15.5 h 1153 q 80,0 136,-56.5 56,-56.5 56,-136.5 V 193 q 0,-41 -15.5,-76 Q 1507,82 1481.5,56.5 1456,31 1420,15.5 1384,0 1346,0 H 860 v 643 h 172 q 12,0 21.5,8 9.5,8 9.5,21 l 12,168 q 0,14 -8,24 -10,10 -23,10 H 860 v 74 q 0,41 10.5,54.5 10.5,13.5 53.5,13.5 25,0 55.5,-4 30.5,-4 58.5,-11 6,0 13.5,1.5 7.5,1.5 11.5,5.5 10,6 14,22 l 23,162 q 4,29 -25,35 -90,25 -188,24 -301,0 -301,-293 V 874 H 483 q -33,0 -32,-32 V 674 q 0,-12 9,-21.5 9,-9.5 23,-9.5 H 586 V 0 H 193 Q 154,0 119,15.5 84,31 58.5,56.5 33,82 17.5,117 2,152 2,193 z"
           inkscape:connector-curvature="0" />
      </defs>
      <g
         transform="scale(0.75,0.75)"
         id="aadb1ac0f3be4191b9df431c7aa0a99d"
         p:name="group"
         style="fill:#000000">
        <rect
           id="rect3130"
           y="0"
           x="0"
           width="32"
           height="32"
           style="fill:#000000;fill-opacity:0;stroke:none" />
        <g
           id="g3132"
           transform="translate(1,1)"
           style="fill:#000000">
          <use
             style="fill:#000000;fill-opacity:1;visibility:hidden;display:none"
             id="482f1309813a4271bd9c70f9740e19d3"
             p:name="shadow"
             xlink:href="#1f60c2c99c3f445ebbdef4f8c7dcea18"
             x="0"
             y="0"
             width="1"
             height="1" />
        </g>
        <use
           style="fill:#000000;fill-opacity:1"
           id="bf7e593f210f4e3db9bd900c2d587780"
           p:name="icon"
           xlink:href="#1f60c2c99c3f445ebbdef4f8c7dcea18"
           x="0"
           y="0"
           width="1"
           height="1" />
      </g>
    </g>
  </g>
</svg>
