<?xml version="1.0" encoding="UTF-8" standalone="no"?>
<!-- Created with Inkscape (http://www.inkscape.org/) -->

<svg
   xmlns:p="http://www.evolus.vn/Namespace/Pencil"
   xmlns:dc="http://purl.org/dc/elements/1.1/"
   xmlns:cc="http://creativecommons.org/ns#"
   xmlns:rdf="http://www.w3.org/1999/02/22-rdf-syntax-ns#"
   xmlns:svg="http://www.w3.org/2000/svg"
   xmlns="http://www.w3.org/2000/svg"
   xmlns:xlink="http://www.w3.org/1999/xlink"
   xmlns:sodipodi="http://sodipodi.sourceforge.net/DTD/sodipodi-0.dtd"
   xmlns:inkscape="http://www.inkscape.org/namespaces/inkscape"
   width="32px"
   height="32px"
   id="svg2985"
   version="1.1"
   inkscape:version="0.48.5 r10040"
   inkscape:export-filename="E:\SVN\One\images\new.png"
   inkscape:export-xdpi="90"
   inkscape:export-ydpi="90"
   sodipodi:docname="fav.svg">
  <defs
     id="defs2987" />
  <sodipodi:namedview
     id="base"
     pagecolor="#ffffff"
     bordercolor="#666666"
     borderopacity="1.0"
     inkscape:pageopacity="0.0"
     inkscape:pageshadow="2"
     inkscape:zoom="11.197802"
     inkscape:cx="16"
     inkscape:cy="16"
     inkscape:current-layer="layer1"
     showgrid="true"
     inkscape:grid-bbox="true"
     inkscape:document-units="px"
     inkscape:window-width="1366"
     inkscape:window-height="706"
     inkscape:window-x="-8"
     inkscape:window-y="-8"
     inkscape:window-maximized="1" />
  <metadata
     id="metadata2990">
    <rdf:RDF>
      <cc:Work
         rdf:about="">
        <dc:format>image/svg+xml</dc:format>
        <dc:type
           rdf:resource="http://purl.org/dc/dcmitype/StillImage" />
        <dc:title></dc:title>
      </cc:Work>
    </rdf:RDF>
  </metadata>
  <g
     id="layer1"
     inkscape:label="Layer 1"
     inkscape:groupmode="layer">
    <g
       transform="scale(1.3333333,1.3333333)"
       id="6ea7db37e32540f0981578d9cafa7286"
       p:def="Evolus:FontAwesomeIcons:icon-file"
       p:type="Shape"
       style="fill:#000000">
      <p:metadata>
        <p:property
           name="box">24,24</p:property>
        <p:property
           name="withShadow">false</p:property>
        <p:property
           name="disabled">false</p:property>
        <p:property
           name="shadowColor">#FFFFFFFF</p:property>
        <p:property
           name="fillColor">#333333FF</p:property>
        <p:property
           name="disabledColor">#AAAAAAFF</p:property>
      </p:metadata>
      <defs
         id="defs3157">
        <path
           id="242d67dccaed4b8cbaf8b417ea7ecad6"
           p:name="glyph"
           transform="matrix(0.015625,0,0,-0.015625,6.40625,28)"
           d="m 0,78 v 1382 q 0,31 22.5,53.5 Q 45,1536 78,1536 h 614 q 33,0 71,-16.5 38,-16.5 60,-38.5 l 351,-351 q 23,-23 39,-60.5 16,-37.5 16,-70.5 V 78 Q 1229,45 1206.5,22.5 1184,0 1153,0 H 78 Q 45,0 22.5,22.5 0,45 0,78 z m 154,76 h 921 V 846 H 616 q -31,0 -53,22.5 -22,22.5 -22,55.5 v 458 H 154 V 154 z M 268,326 V 442 H 961 V 326 H 268 z m 0,270 V 711 H 961 V 596 H 268 z m 426,403 h 381 q 0,4 -4,13.5 -4,9.5 -6,11.5 l -350,348 q -2,4 -9.5,6 -7.5,2 -11.5,4 V 999 z"
           inkscape:connector-curvature="0" />
      </defs>
      <g
         transform="scale(0.75,0.75)"
         id="9a76f210eb55458881495cab9529b6ec"
         p:name="group"
         style="fill:#000000">
        <rect
           id="rect3161"
           y="0"
           x="0"
           width="32"
           height="32"
           style="fill:#000000;fill-opacity:0;stroke:none" />
        <g
           id="g3163"
           transform="translate(1,1)"
           style="fill:#000000">
          <use
             style="fill:#000000;fill-opacity:1;visibility:hidden;display:none"
             id="efa8dd99f8c24317ae0cf98993c28cb6"
             p:name="shadow"
             xlink:href="#242d67dccaed4b8cbaf8b417ea7ecad6"
             x="0"
             y="0"
             width="1"
             height="1" />
        </g>
        <use
           style="fill:#000000;fill-opacity:1"
           id="ff18df0acfb144248d384a84010a9ab1"
           p:name="icon"
           xlink:href="#242d67dccaed4b8cbaf8b417ea7ecad6"
           x="0"
           y="0"
           width="1"
           height="1" />
      </g>
    </g>
  </g>
</svg>
