<?xml version="1.0" encoding="UTF-8" standalone="no"?>
<!-- Created with Inkscape (http://www.inkscape.org/) -->

<svg
   xmlns:p="http://www.evolus.vn/Namespace/Pencil"
   xmlns:dc="http://purl.org/dc/elements/1.1/"
   xmlns:cc="http://creativecommons.org/ns#"
   xmlns:rdf="http://www.w3.org/1999/02/22-rdf-syntax-ns#"
   xmlns:svg="http://www.w3.org/2000/svg"
   xmlns="http://www.w3.org/2000/svg"
   xmlns:xlink="http://www.w3.org/1999/xlink"
   xmlns:sodipodi="http://sodipodi.sourceforge.net/DTD/sodipodi-0.dtd"
   xmlns:inkscape="http://www.inkscape.org/namespaces/inkscape"
   width="32px"
   height="32px"
   id="svg2985"
   version="1.1"
   inkscape:version="0.48.5 r10040"
   inkscape:export-filename="E:\SVN\One\images\options.png"
   inkscape:export-xdpi="90"
   inkscape:export-ydpi="90"
   sodipodi:docname="New document 2">
  <defs
     id="defs2987" />
  <sodipodi:namedview
     id="base"
     pagecolor="#ffffff"
     bordercolor="#666666"
     borderopacity="1.0"
     inkscape:pageopacity="0.0"
     inkscape:pageshadow="2"
     inkscape:zoom="11.197802"
     inkscape:cx="16"
     inkscape:cy="16"
     inkscape:current-layer="layer1"
     showgrid="true"
     inkscape:grid-bbox="true"
     inkscape:document-units="px"
     inkscape:window-width="1366"
     inkscape:window-height="706"
     inkscape:window-x="-8"
     inkscape:window-y="-8"
     inkscape:window-maximized="1" />
  <metadata
     id="metadata2990">
    <rdf:RDF>
      <cc:Work
         rdf:about="">
        <dc:format>image/svg+xml</dc:format>
        <dc:type
           rdf:resource="http://purl.org/dc/dcmitype/StillImage" />
        <dc:title></dc:title>
      </cc:Work>
    </rdf:RDF>
  </metadata>
  <g
     id="layer1"
     inkscape:label="Layer 1"
     inkscape:groupmode="layer">
    <g
       transform="scale(1.3333333,1.3333333)"
       id="b51b3f018aee4f07b9beec7b9da78a92"
       p:def="Evolus:FontAwesomeIcons:icon-cog"
       p:type="Shape"
       style="fill:#000000">
      <p:metadata>
        <p:property
           name="box">24,24</p:property>
        <p:property
           name="withShadow">false</p:property>
        <p:property
           name="disabled">false</p:property>
        <p:property
           name="shadowColor">#FFFFFFFF</p:property>
        <p:property
           name="fillColor">#333333FF</p:property>
        <p:property
           name="disabledColor">#AAAAAAFF</p:property>
      </p:metadata>
      <defs
         id="defs2996">
        <path
           id="6d78350c9af545c196a33871e945ed83"
           p:name="glyph"
           transform="matrix(0.015625,0,0,-0.015625,3.5546875,28)"
           d="M 0,651 V 887 Q 0,899 30.5,908.5 61,918 99,924 q 38,6 74,9 36,3 48,5 18,61 49,117 -55,82 -120,157 l -7,15 q 0,8 28,38.5 28,30.5 62.5,65.5 34.5,35 66.5,62.5 32,27.5 40,27.5 2,0 26.5,-18.5 24.5,-18.5 54.5,-41 30,-22.5 56.5,-43 26.5,-20.5 32.5,-24.5 29,16 58.5,26.5 29.5,10.5 60.5,20.5 0,12 3,49 3,37 9,75 6,38 15.5,69 9.5,31 21.5,31 h 237 q 14,0 19,-15 12,-49 17,-103 5,-54 14,-106 31,-8 59.5,-19 28.5,-11 56.5,-28 8,6 34,26.5 26,20.5 55.5,43 29.5,22.5 53,40 23.5,17.5 29.5,17.5 6,0 37,-27.5 31,-27.5 65,-62.5 34,-35 61.5,-65.5 27.5,-30.5 27.5,-38.5 0,-4 -17.5,-28.5 -17.5,-24.5 -39,-53.5 -21.5,-29 -42,-55.5 -20.5,-26.5 -24.5,-32.5 33,-55 51,-123 49,-10 103.5,-13 54.5,-3 101.5,-20 16,-4 16,-18 V 647 q 0,-12 -29.5,-21.5 Q 1534,616 1495,610 q -39,-6 -76,-9 -37,-3 -49,-5 -14,-57 -47,-117 55,-82 121,-157 l 6,-15 q 0,-8 -27.5,-38.5 Q 1395,238 1360,203 1325,168 1293.5,140.5 1262,113 1253,113 q -2,0 -26.5,18.5 -24.5,18.5 -54,41 -29.5,22.5 -56,43 Q 1090,236 1083,240 1054,224 1024.5,212.5 995,201 965,193 963,181 959.5,143.5 956,106 950,67.5 944,29 936,-2 928,-33 915,-33 H 678 q -14,0 -19,17 -14,49 -19,103 -5,54 -11,103 -61,18 -117,50 Q 471,209 431,179.5 391,150 352,117 l -12,-4 q -6,0 -37,27.5 Q 272,168 238.5,203 205,238 177.5,268.5 150,299 150,307 q 0,2 16,26.5 16,24.5 37.5,53.5 21.5,29 42,55.5 Q 266,469 272,477 239,532 221,600 170,610 116.5,613 63,616 16,633 0,637 0,651 z m 557,117 q 0,-49 18.5,-93 18.5,-44 51,-77 32.5,-33 77,-52.5 Q 748,526 797,526 q 49,0 93,19.5 44,19.5 75.5,52.5 31.5,33 51,77 19.5,44 19.5,93 0,49 -19.5,92 -19.5,43 -51,76 -31.5,33 -75.5,51.5 -44,18.5 -93,18.5 -49,0 -93.5,-18.5 Q 659,969 626.5,936 594,903 575.5,860 557,817 557,768 z"
           inkscape:connector-curvature="0" />
      </defs>
      <g
         transform="scale(0.75,0.75)"
         id="e50425fbaf5f41ec8cee7f97cb407131"
         p:name="group"
         style="fill:#000000">
        <rect
           id="rect3000"
           y="0"
           x="0"
           width="32"
           height="32"
           style="fill:#000000;fill-opacity:0;stroke:none" />
        <g
           id="g3002"
           transform="translate(1,1)"
           style="fill:#000000">
          <use
             style="fill:#000000;fill-opacity:1;visibility:hidden;display:none"
             id="d19d8fbe1e7a4d6797c39d4acbdab7ef"
             p:name="shadow"
             xlink:href="#6d78350c9af545c196a33871e945ed83"
             x="0"
             y="0"
             width="1"
             height="1" />
        </g>
        <use
           style="fill:#000000;fill-opacity:1"
           id="6f1d919b8dac45e5a6b9a82b5edaebd4"
           p:name="icon"
           xlink:href="#6d78350c9af545c196a33871e945ed83"
           x="0"
           y="0"
           width="1"
           height="1" />
      </g>
    </g>
  </g>
</svg>
