<?xml version="1.0" encoding="UTF-8" standalone="no"?>
<!-- Created with Inkscape (http://www.inkscape.org/) -->

<svg
   xmlns:p="http://www.evolus.vn/Namespace/Pencil"
   xmlns:dc="http://purl.org/dc/elements/1.1/"
   xmlns:cc="http://creativecommons.org/ns#"
   xmlns:rdf="http://www.w3.org/1999/02/22-rdf-syntax-ns#"
   xmlns:svg="http://www.w3.org/2000/svg"
   xmlns="http://www.w3.org/2000/svg"
   xmlns:xlink="http://www.w3.org/1999/xlink"
   xmlns:sodipodi="http://sodipodi.sourceforge.net/DTD/sodipodi-0.dtd"
   xmlns:inkscape="http://www.inkscape.org/namespaces/inkscape"
   width="32px"
   height="32px"
   id="svg2985"
   version="1.1"
   inkscape:version="0.48.5 r10040"
   inkscape:export-filename="E:\SVN\One\images\paste.png"
   inkscape:export-xdpi="90"
   inkscape:export-ydpi="90"
   sodipodi:docname="open.svg">
  <defs
     id="defs2987" />
  <sodipodi:namedview
     id="base"
     pagecolor="#ffffff"
     bordercolor="#666666"
     borderopacity="1.0"
     inkscape:pageopacity="0.0"
     inkscape:pageshadow="2"
     inkscape:zoom="11.197802"
     inkscape:cx="16"
     inkscape:cy="16"
     inkscape:current-layer="layer1"
     showgrid="true"
     inkscape:grid-bbox="true"
     inkscape:document-units="px"
     inkscape:window-width="1366"
     inkscape:window-height="706"
     inkscape:window-x="-8"
     inkscape:window-y="-8"
     inkscape:window-maximized="1" />
  <metadata
     id="metadata2990">
    <rdf:RDF>
      <cc:Work
         rdf:about="">
        <dc:format>image/svg+xml</dc:format>
        <dc:type
           rdf:resource="http://purl.org/dc/dcmitype/StillImage" />
        <dc:title></dc:title>
      </cc:Work>
    </rdf:RDF>
  </metadata>
  <g
     id="layer1"
     inkscape:label="Layer 1"
     inkscape:groupmode="layer">
    <g
       transform="scale(1.3333333,1.3333333)"
       id="98920e24a8a24d2e945c7c06acfb0b67"
       p:def="Evolus:FontAwesomeIcons:icon-paste"
       p:type="Shape"
       style="fill:#000000">
      <p:metadata>
        <p:property
           name="box">24,24</p:property>
        <p:property
           name="withShadow">false</p:property>
        <p:property
           name="disabled">false</p:property>
        <p:property
           name="shadowColor">#FFFFFFFF</p:property>
        <p:property
           name="fillColor">#333333FF</p:property>
        <p:property
           name="disabledColor">#AAAAAAFF</p:property>
      </p:metadata>
      <defs
         id="defs3250">
        <path
           id="cb1940f311c34f73824c89be07194083"
           p:name="glyph"
           transform="matrix(0.015625,0,0,-0.015625,3.5234375,28)"
           d="m 0,385 v 1075 q 0,31 22.5,53.5 Q 45,1536 78,1536 h 921 q 31,0 53.5,-22.5 22.5,-22.5 22.5,-53.5 v -231 h 33 61 q 25,0 55.5,-13.5 30.5,-13.5 49.5,-29.5 l 280,-281 q 18,-18 30.5,-49 12.5,-31 12.5,-55 V 739 61 Q 1597,34 1580,17 1563,0 1536,0 H 676 Q 649,0 631.5,17.5 614,35 614,61 V 307 H 78 Q 45,307 22.5,329.5 0,352 0,385 z m 276,936 q 0,-12 9.5,-21.5 9.5,-9.5 21.5,-9.5 h 461 q 12,0 21.5,9.5 9.5,9.5 9.5,21.5 v 61 q 0,12 -9.5,21.5 -9.5,9.5 -21.5,9.5 H 307 q -12,0 -21.5,-9 -9.5,-9 -9.5,-22 v -61 z M 737,123 h 738 v 555 h -367 q -27,0 -44,17.5 -17,17.5 -17,43.5 v 367 H 737 V 123 z m 432,678 h 306 q 0,2 -3.5,8 -3.5,6 -5.5,10 l -280,279 q 0,4 -6,4 -2,0 -2,1 0,1 -2,1 -2,0 -3.5,1 -1.5,1 -3.5,1 V 801 z"
           inkscape:connector-curvature="0" />
      </defs>
      <g
         transform="scale(0.75,0.75)"
         id="f3207540e6314623be50a1d03630bc3c"
         p:name="group"
         style="fill:#000000">
        <rect
           id="rect3254"
           y="0"
           x="0"
           width="32"
           height="32"
           style="fill:#000000;fill-opacity:0;stroke:none" />
        <g
           id="g3256"
           transform="translate(1,1)"
           style="fill:#000000">
          <use
             style="fill:#000000;fill-opacity:1;visibility:hidden;display:none"
             id="ef96aadeacc643a2932ad5157636bcb2"
             p:name="shadow"
             xlink:href="#cb1940f311c34f73824c89be07194083"
             x="0"
             y="0"
             width="1"
             height="1" />
        </g>
        <use
           style="fill:#000000;fill-opacity:1"
           id="6ee036d746eb417588b139d4decaa7b6"
           p:name="icon"
           xlink:href="#cb1940f311c34f73824c89be07194083"
           x="0"
           y="0"
           width="1"
           height="1" />
      </g>
    </g>
  </g>
</svg>
